<svg xmlns="http://www.w3.org/2000/svg" xml:space="preserve" style="fill-rule:evenodd;clip-rule:evenodd;stroke-linejoin:round;stroke-miterlimit:2" viewBox="0 0 500 500">
  <path d="M500 191.768c0-56.706-53.779-102.744-120.02-102.744H139.939c-66.241 0-120.02 46.038-120.02 102.744v205.488C19.919 453.962 73.698 500 139.939 500H379.98C446.221 500 500 453.962 500 397.256V191.768Z" style="fill:#0f3729" transform="matrix(1.04149 0 0 1.21662 -20.745 -108.309)"/>
  <path d="M728.423 297.18c0-12.626 2.805-23.887 8.414-33.782 5.61-9.894 13.433-17.604 23.468-23.128 10.035-5.524 21.41-8.286 34.126-8.286 15.583 0 28.921 4.006 40.016 12.019 11.095 8.013 18.512 18.94 22.252 32.781h-35.154c-2.618-5.342-6.327-9.409-11.126-12.202-4.8-2.792-10.254-4.189-16.362-4.189-9.848 0-17.827 3.339-23.935 10.017-6.108 6.677-9.163 15.601-9.163 26.77 0 11.17 3.055 20.094 9.163 26.771 6.108 6.678 14.087 10.016 23.935 10.016 6.108 0 11.562-1.396 16.362-4.188 4.799-2.793 8.508-6.86 11.126-12.202h35.154c-3.74 13.841-11.157 24.737-22.252 32.69-11.095 7.952-24.433 11.928-40.016 11.928-12.716 0-24.091-2.762-34.126-8.286-10.035-5.524-17.858-13.203-23.468-23.037-5.609-9.835-8.414-21.065-8.414-33.692Z" style="fill:#fff;fill-rule:nonzero" transform="matrix(2.67391 0 0 2.74554 -1871.74 -556.92)"/>
</svg>
